<?xml version="1.0" encoding="UTF-8"?>
<svg width="100px" height="279px" viewBox="0 0 100 279" version="1.1" xmlns="http://www.w3.org/2000/svg" xmlns:xlink="http://www.w3.org/1999/xlink">
    <title>Group 2</title>
    <defs>
        <linearGradient x1="50%" y1="0%" x2="50%" y2="100%" id="linearGradient-1">
            <stop stop-color="#F5C1F9" offset="0%"></stop>
            <stop stop-color="#FFFFFF" offset="100%"></stop>
        </linearGradient>
    </defs>
    <g id="Page-1" stroke="none" stroke-width="1" fill="none" fill-rule="evenodd">
        <g id="Slide-8" transform="translate(-149.000000, -144.000000)">
            <g id="Group-2" transform="translate(149.000000, 143.997803)">
                <polygon id="Path-13" fill="url(#linearGradient-1)" points="41 0 41 77 73 77 73 0"></polygon>
                <polygon id="Path-13" fill="url(#linearGradient-1)" points="14 33 14 110 46 110 46 33"></polygon>
                <polygon id="Path-13" fill="url(#linearGradient-1)" points="68 18 68 95 100 95 100 18"></polygon>
                <g id="Group" transform="translate(0.000000, 33.002197)">
                    <path d="M35.6842802,51 L42.684038,60.195815 C43.4410925,62.1202245 42.8377029,63.0824293 40.8738694,63.0824293 C37.928119,63.0824293 42.8963142,67.192991 40.8738694,70.1163453 C39.5255728,72.0652481 37.7957097,73.0396995 35.6842802,73.0396995 L37.7921503,81.5374539 C33.8288893,88.225101 30.0780051,88.7721193 26.5394978,83.1785088 C25.5585302,77.2223005 25.2483888,74.6183204 25.6090736,75.3665685 L19,57.3733157 L35.6842802,51 Z" id="Path" stroke="#000000"></path>
                    <path d="M28.5524386,62.0795164 C30.8575941,63.9552437 32.0101718,65.4306365 32.0101718,66.5056948 C32.0101718,68.1182823 34.6964542,66.0024032 33.353313,62.0795164 C32.0101718,58.1566295 39.4079331,52.8801376 40.424762,49.5948025 C41.4415909,46.3094673 41.2944377,44.538409 38.4720385,39 C38.0472562,39.8803935 36.3410143,40.9168124 33.353313,42.1092565 C28.8717611,43.8979227 30.8583298,39.8825945 22.6368783,43.8296922 C14.4154267,47.7767898 11,48.5009135 11,54.3834096 C11,60.2659057 13.3919759,67.7806016 17.4931367,69.3848502 C21.5942976,70.9890989 24.3845004,73.9435528 26.4684695,76.4732169 C27.8577822,78.1596596 28.5524386,75.7968707 28.5524386,69.3848502 C26.0263079,67.6214386 24.7632426,65.96303 24.7632426,64.4096246 C24.7632426,62.8562191 26.0263079,62.0795164 28.5524386,62.0795164 Z" id="Path-2" stroke="#000000" fill="#041650"></path>
                    <path d="M6.05728058,143.503889 C7.50720839,143.541067 8.61805055,143.845819 9.37036763,144.461718 C10.140617,145.092298 10.5,146.047501 10.5,147.299329 C10.5,149.572529 10.1350487,152.771118 9.6133466,155.251916 C9.38013799,156.36087 9.11710375,157.324316 8.83884474,157.987918 C8.44366259,158.075842 8.39969999,157.881771 8.39969999,157.624737 C8.39969999,156.618265 8.60031345,155.108902 8.99507055,153.096235 L8.05406305,152.782792 C6.21669204,156.592364 4.75809299,159.617352 3.67826588,161.857757 C3.56457153,162.093647 3.45006348,162.269795 3.32659035,162.386651 C2.85084983,162.516593 2.61344839,162.223988 2.37241456,161.907257 C1.35884643,160.575375 0.5,157.821235 0.5,156.649546 C0.5,155.310549 2.37898112,150.93009 6.05728058,143.503889 Z" id="Path-7" stroke="#000000" fill="#FFFFFF"></path>
                    <path d="M22,90 C9.27702204,104.798127 2.91553307,114.478278 2.91553307,119.040452 C2.91553307,125.883713 0.855583668,143.377732 2.91553307,148 C4.31505424,147.71431 7.12319356,147.71431 11.339951,148 L16.5076689,122.28051 L22,90 Z" id="Path-4" stroke="#000000" fill="#E5CA17"></path>
                    <path d="M4.44499435,226 L1,234.449881 L22.5190281,242 C23.4706759,239.271012 23.0101307,237.496805 21.1373925,236.677378 C19.2646543,235.857951 17.2408262,233.492666 15.0659083,229.581523 L4.44499435,226 Z" id="Path-6" stroke="#000000" fill="#000000"></path>
                    <path d="M33.8396469,231.988872 L32,243.955226 L61.9643889,245 C62.2967853,241.067014 60.302222,238.750434 55.9806993,238.05026 C49.4984151,237 42.9798847,237.966617 42.9798847,231.988872 C42.9798847,228.003709 39.9331388,228.003709 33.8396469,231.988872 Z" id="Path-6" stroke="#000000" fill="#000000"></path>
                    <polygon id="Path-9" stroke="#000000" fill="#000000" points="76 42 76 19 73 19 73 42"></polygon>
                    <path d="M67,41.2453842 C68.7958836,29.7484614 70.289977,24 71.4822803,24 C73.2707352,24 71.4822803,29.8155486 71.4822803,31.2191204 C71.4822803,32.6226921 75.2142639,25.4835393 76.8829313,25.4835393 C78.5515987,25.4835393 83.9596784,29.8844117 81.2556386,32.6226921 C78.5515987,35.3609725 71.4822803,40.2278523 71.4822803,42.9601508 C71.4822803,44.7816832 69.9881869,44.2100943 67,41.2453842 Z" id="Path-8" stroke="#000000" fill="#FFFFFF"></path>
                    <path d="M24.0192491,174.037896 C25.6035232,186.339312 26.2680726,194.30104 26.012897,197.923081 C25.8587355,200.111297 24.3813332,202.339987 24.0192491,203.656306 C22.7581559,208.240877 19.9103187,216.716153 15.4757373,229.082134 L3,226.530142 C7.48912723,211.252575 10.5584248,200.258286 12.2078927,193.547276 C14.6820945,183.480761 12.2078927,156.587606 12.2078927,149.083438 C12.2078927,144.080659 14.6557133,137.052846 19.5513545,128 L45.2937968,128 C47.8198224,159.536267 48.5774649,180.286602 47.5667243,190.251005 C45.2937968,212.658696 45.2937968,216.698382 45.2937968,219.051934 C45.2937968,223.368119 44.7407365,228.017474 43.6346161,233 L33.5590394,233 L26.8878297,200.500421 L24.0192491,174.037896 L22.1276093,156.587606 C21.6726983,153.659949 21.4452428,152.196121 21.4452428,152.196121" id="Path-5" stroke="#000000" fill="#0A84FF"></path>
                    <path d="M66.9977593,37 L74,39.1530786 C74,48.1292519 72.8329599,55.1045732 70.4988796,60.0790426 C66.9977593,67.5407465 55.3881434,89.5426928 53.4964881,93.6895691 C51.6048328,97.8364453 49.3173033,123.626607 46.7296944,127.370268 C45.0046217,129.866043 43.6392598,130.894872 42.6336086,130.456756 C27.351358,132.514415 18.992477,132.514415 17.5569655,130.456756 C15.4036982,127.370268 19.7789125,86.8386404 25.7828117,81.4765501 C32.2576049,79.5013167 36.1249162,78.0126703 37.3847456,77.0106109 L40.5517486,79.3663104 C48.4159874,67.9791609 53.4837924,60.0415428 55.7551637,55.5534562 C58.026535,51.0653695 61.7740669,44.8808841 66.9977593,37 Z" id="Path-3" stroke="#000000" fill="#FFE225"></path>
                    <polygon id="Path-10" stroke="#000000" points="58 3 58 8.81383244 63.0157697 13 86.1923903 13 91 8.81383244 91 3"></polygon>
                    <polygon id="Path-11" stroke="#000000" points="75 14 75 19 74 19 74 14"></polygon>
                    <polygon id="Path-12" stroke="#D98FE0" fill="#D98FE0" points="62 0 62 7 87 7 87 0"></polygon>
                </g>
            </g>
        </g>
    </g>
</svg>